<svg width="18" height="18" viewBox="0 0 18 18" fill="none" xmlns="http://www.w3.org/2000/svg">
<path d="M14.9455 0C14.545 0.000969674 14.1488 0.0812203 13.7795 0.236122C13.4102 0.391024 13.0753 0.617511 12.794 0.902517L1.08683 12.6093L1.04093 12.8411L0.230989 16.9131L0 18L1.08758 17.769L5.1595 16.959L5.39049 16.9124L17.0977 5.20558C17.3834 4.92477 17.6104 4.58986 17.7653 4.2204C17.9202 3.85093 18 3.45431 18 3.05368C18 2.65304 17.9202 2.25642 17.7653 1.88696C17.6104 1.51749 17.3834 1.18258 17.0977 0.901777C16.8162 0.616816 16.4811 0.390414 16.1117 0.235638C15.7424 0.0808617 15.346 0.000775151 14.9455 0ZM14.9455 1.41115C15.3186 1.41115 15.6947 1.58144 16.056 1.94348C16.7764 2.66313 16.7764 3.44423 16.056 4.16461L15.5244 4.67325L13.3256 2.47507L13.8349 1.94348C14.197 1.58144 14.5723 1.41115 14.9455 1.41115ZM12.2854 3.51678L14.4827 5.71496L5.52968 14.6676C5.04634 13.7219 4.27684 12.9529 3.33084 12.4701L12.2854 3.51678ZM2.38319 13.674C2.82136 13.8503 3.21938 14.1133 3.55334 14.4473C3.88731 14.7813 4.15033 15.1793 4.32661 15.6175L1.89678 16.1032L2.38319 13.674Z" fill="white"/>
</svg>
