<svg width="15" height="16" viewBox="0 0 15 16" fill="none" xmlns="http://www.w3.org/2000/svg">
<g clip-path="url(#clip0)">
<path d="M3.20705 7.62632L7.14982 3.42132L5.85724 2.04257L4.05021 3.97007C4.02866 3.9931 4.00306 4.01137 3.97489 4.02384C3.94671 4.0363 3.91651 4.04272 3.886 4.04272C3.8555 4.04272 3.82529 4.0363 3.79711 4.02384C3.76894 4.01137 3.74334 3.9931 3.72179 3.97007L3.39337 3.61976C3.30255 3.52288 3.30255 3.36601 3.39337 3.26944L5.2004 1.34194L4.21486 0.290381C3.85187 -0.0968067 3.26359 -0.0968067 2.9006 0.290381L0.272377 3.09382C-0.0903181 3.48101 -0.0906111 4.10851 0.272377 4.49569L3.20705 7.62632ZM14.588 3.97632C15.1376 3.39007 15.1373 2.43976 14.588 1.85351L13.2623 0.439443C12.7127 -0.146807 11.8215 -0.146807 11.2716 0.439443L9.92335 1.87726L13.2398 5.41476L14.588 3.97632ZM9.26037 2.58476L0.559194 11.8648L0.00958425 15.2223C-0.0645368 15.6751 0.30519 16.0694 0.729994 15.9898L3.87794 15.401L12.5768 6.12194L9.26037 2.58476ZM14.728 11.5044L13.7425 10.4532L11.9355 12.3807C11.8446 12.4776 11.6976 12.4776 11.607 12.3807L11.2786 12.0304C11.1881 11.9335 11.1881 11.7766 11.2786 11.6801L13.0857 9.75257L11.7925 8.37319L7.84972 12.5782L10.7856 15.7094C11.1486 16.0966 11.7368 16.0966 12.0998 15.7094L14.728 12.9063C15.091 12.5191 15.091 11.8916 14.728 11.5044Z" fill="white"/>
</g>
<defs>
<clipPath id="clip0">
<rect width="15" height="16" fill="white"/>
</clipPath>
</defs>
</svg>
