<svg width="18" height="18" viewBox="0 0 18 18" fill="none" xmlns="http://www.w3.org/2000/svg">
<path d="M17.6267 8.8555L9.95503 0.736868L9.4408 0.192403C9.32364 0.0691656 9.16519 0 9.00004 0C8.83488 0 8.67644 0.0691656 8.55927 0.192403L0.373343 8.8555C0.253286 8.98212 0.158403 9.13293 0.0942952 9.29901C0.0301869 9.4651 -0.0018477 9.6431 8.22954e-05 9.82251C0.00802402 10.5625 0.589755 11.1532 1.28863 11.1532H2.13243V18H15.8676V11.1532H16.7293C17.0688 11.1532 17.3885 11.0123 17.6287 10.758C17.747 10.6331 17.8407 10.4847 17.9045 10.3212C17.9682 10.1578 18.0007 9.98253 18 9.80569C18 9.44832 17.867 9.10987 17.6267 8.8555ZM10.1119 16.4864H7.8882V12.198H10.1119V16.4864ZM14.4381 9.63962V16.4864H11.3826V11.6934C11.3826 11.2289 11.0272 10.8526 10.5884 10.8526H7.41169C6.97291 10.8526 6.61752 11.2289 6.61752 11.6934V16.4864H3.56194V9.63962H1.65593L9.00202 1.86784L9.46066 2.35345L16.3461 9.63962H14.4381Z" fill="white"/>
</svg>
