<svg width="16" height="16" viewBox="0 0 16 16" fill="none" xmlns="http://www.w3.org/2000/svg">
<path d="M16 3.42858V4.00001C16 4.07578 15.9719 4.14846 15.9219 4.20204C15.8719 4.25562 15.8041 4.28572 15.7333 4.28572H14.9333V4.71429C14.9333 4.95097 14.7542 5.14286 14.5333 5.14286H1.46667C1.24577 5.14286 1.06667 4.95097 1.06667 4.71429V4.28572H0.266667C0.195942 4.28572 0.128115 4.25562 0.0781048 4.20204C0.0280951 4.14846 0 4.07578 0 4.00001V3.42858C3.81381e-07 3.37205 0.0156493 3.3168 0.0449667 3.26981C0.0742841 3.22281 0.115953 3.18619 0.1647 3.16458L7.89803 0.021724C7.96332 -0.00724132 8.03668 -0.00724132 8.10197 0.021724L15.8353 3.16458C15.884 3.18619 15.9257 3.22281 15.955 3.26981C15.9844 3.3168 16 3.37205 16 3.42858ZM15.2 14.2857H0.8C0.358167 14.2857 0 14.6695 0 15.1429V15.7143C0 15.7901 0.0280951 15.8627 0.0781048 15.9163C0.128115 15.9699 0.195942 16 0.266667 16H15.7333C15.8041 16 15.8719 15.9699 15.9219 15.9163C15.9719 15.8627 16 15.7901 16 15.7143V15.1429C16 14.6695 15.6418 14.2857 15.2 14.2857ZM2.66667 5.71429V12.5714H1.46667C1.24577 12.5714 1.06667 12.7633 1.06667 13V13.7143H14.9333V13C14.9333 12.7633 14.7542 12.5714 14.5333 12.5714H13.3333V5.71429H11.2V12.5714H9.06667V5.71429H6.93333V12.5714H4.8V5.71429H2.66667Z" fill="white"/>
</svg>
