<svg width="18" height="18" viewBox="0 0 18 18" fill="none" xmlns="http://www.w3.org/2000/svg">
<path d="M9 0L8.82006 0.0938527L1.63385 4.23128L0 5.15697L0.951453 5.68057V14.3249C0.60824 14.6677 0.376557 15.2931 0.376557 16.0241C0.376557 16.5482 0.497695 17.0507 0.713323 17.4213C0.928951 17.7918 1.22141 18 1.52635 18C1.83129 18 2.12375 17.7918 2.33938 17.4213C2.555 17.0507 2.67614 16.5482 2.67614 16.0241C2.67614 15.2931 2.44446 14.6677 2.10125 14.3249V6.36224L3.25104 7.00933V12.0724C3.25104 12.8825 3.53849 13.5543 3.87997 14.0187C4.22146 14.48 4.64574 14.806 5.15509 15.0985C6.17496 15.6813 7.51907 16.0241 9 16.0241C10.4809 16.0241 11.825 15.6823 12.8449 15.0975C13.3543 14.806 13.7785 14.48 14.12 14.0177C14.4615 13.5543 14.749 12.8825 14.749 12.0724V7.00933L16.3661 6.08266L18 5.15697L16.3656 4.2303L9.17937 0.0938527L9 0ZM9 2.0697L14.3897 5.15697L9 8.24424L3.61035 5.15697L9 2.0697ZM4.40083 7.68902L8.82063 10.2201L9 10.313L9.17994 10.2191L13.5992 7.68804V12.0724C13.5992 12.0823 13.6015 12.1969 13.4192 12.4429C13.2376 12.6899 12.9116 13.0011 12.485 13.2461C11.633 13.7332 10.3769 14.0483 9 14.0483C7.62312 14.0483 6.36697 13.7341 5.5144 13.2451C5.08898 13.0011 4.76244 12.6889 4.58077 12.4429C4.39796 12.1959 4.40083 12.0823 4.40083 12.0724V7.68804V7.68902Z" fill="white"/>
</svg>
