<svg width="25" height="25" viewBox="0 0 25 25" fill="none" xmlns="http://www.w3.org/2000/svg">
<path d="M22.6107 8.78521C22.6033 8.66965 22.5522 8.56123 22.4678 8.48194C22.3834 8.40265 22.272 8.35842 22.1562 8.35821H18.8777V2.96421C18.8777 2.71121 18.673 2.50671 18.4202 2.50671H6.57973C6.32698 2.50671 6.12223 2.71121 6.12223 2.96421V8.35821H2.84423H2.84373C2.60148 8.35821 2.40523 8.54696 2.38923 8.78521H2.38623V17.9775C2.3863 18.0988 2.43453 18.2151 2.52032 18.3008C2.60611 18.3865 2.72244 18.4347 2.84373 18.4347H6.12223V14.6062H18.8775V18.4347H22.156C22.2773 18.4347 22.3936 18.3865 22.4794 18.3008C22.5652 18.2151 22.6134 18.0988 22.6135 17.9775V8.78521H22.6107ZM17.631 10.4077H7.36898V4.21096C7.36898 3.95796 7.57373 3.75346 7.82648 3.75346H17.1732C17.426 3.75346 17.6307 3.95796 17.6307 4.21096V10.4077H17.631Z" fill="white"/>
<path d="M7.40051 22.0357C7.40051 22.2887 7.60526 22.4932 7.85801 22.4932H17.142C17.3948 22.4932 17.5995 22.2887 17.5995 22.0357V15.8757H7.40051V22.0357Z" fill="white"/>
</svg>
