<svg width="18" height="18" viewBox="0 0 18 18" fill="none" xmlns="http://www.w3.org/2000/svg">
<g clip-path="url(#clip0)">
<path d="M15.15 4.20372V0H2.85V4.20372C2.0816 4.2431 1.3576 4.57585 0.827323 5.13333C0.297043 5.69082 0.000912562 6.43054 0 7.19995V14.3999H2.55V13.1999H1.2V7.19995C1.20054 6.72273 1.39035 6.2652 1.7278 5.92776C2.06525 5.59031 2.52277 5.4005 3 5.39996H15C15.4772 5.4005 15.9348 5.59031 16.2722 5.92776C16.6097 6.2652 16.7995 6.72273 16.8 7.19995V13.1999H15.15V14.3999H18V7.19995C17.9991 6.43054 17.703 5.69082 17.1727 5.13333C16.6424 4.57585 15.9184 4.2431 15.15 4.20372ZM13.95 4.19997H4.05V1.19999H13.95V4.19997Z" fill="white"/>
<path d="M4.35004 9.30029H2.85004V10.5003H4.35004V18.0002H14.55V10.5003H16.05V9.30029H4.35004ZM13.35 16.8002H5.55004V10.5003H13.35V16.8002Z" fill="white"/>
</g>
<defs>
<clipPath id="clip0">
<rect width="18" height="18" fill="white"/>
</clipPath>
</defs>
</svg>
