<svg width="16" height="18" viewBox="0 0 16 18" fill="none" xmlns="http://www.w3.org/2000/svg">
<path d="M12.36 9.76C14.31 10.42 16 11.5 16 13V18H0V13C0 11.5 1.69 10.42 3.65 9.76L4.27 11L4.5 11.5C3 11.96 1.9 12.62 1.9 13V16.1H6.12L7 11.03L6.06 9.15C6.68 9.08 7.33 9.03 8 9.03C8.67 9.03 9.32 9.08 9.94 9.15L9 11.03L9.88 16.1H14.1V13C14.1 12.62 13 11.96 11.5 11.5L11.73 11L12.36 9.76ZM8 2C6.9 2 6 2.9 6 4C6 5.1 6.9 6 8 6C9.1 6 10 5.1 10 4C10 2.9 9.1 2 8 2ZM8 8C5.79 8 4 6.21 4 4C4 1.79 5.79 0 8 0C10.21 0 12 1.79 12 4C12 6.21 10.21 8 8 8Z" fill="white"/>
</svg>
