<svg width="14" height="16" viewBox="0 0 14 16" fill="none" xmlns="http://www.w3.org/2000/svg">
<g clip-path="url(#clip0)">
<path d="M9.98125 10.0183L7 12.9996L4.01875 10.0183C1.78438 10.1152 0 11.9433 0 14.1996V14.4996C0 15.3277 0.671875 15.9996 1.5 15.9996H12.5C13.3281 15.9996 14 15.3277 14 14.4996V14.1996C14 11.9433 12.2156 10.1152 9.98125 10.0183ZM0.425 2.49331L0.625 2.54019V4.36519C0.40625 4.49644 0.25 4.72456 0.25 4.99956C0.25 5.26206 0.39375 5.48081 0.596875 5.61519L0.109375 7.56206C0.05625 7.77769 0.175 7.99956 0.346875 7.99956H1.65313C1.825 7.99956 1.94375 7.77769 1.89062 7.56206L1.40313 5.61519C1.60625 5.48081 1.75 5.26206 1.75 4.99956C1.75 4.72456 1.59375 4.49644 1.375 4.36519V2.72144L3.4375 3.21831C3.16875 3.75581 3 4.35581 3 4.99956C3 7.20894 4.79063 8.99956 7 8.99956C9.20938 8.99956 11 7.20894 11 4.99956C11 4.35581 10.8344 3.75581 10.5625 3.21831L13.5719 2.49331C14.1406 2.35581 14.1406 1.64644 13.5719 1.50894L7.62187 0.0714355C7.21562 -0.0254395 6.7875 -0.0254395 6.38125 0.0714355L0.425 1.50581C-0.140625 1.64331 -0.140625 2.35581 0.425 2.49331Z" fill="white"/>
</g>
<defs>
<clipPath id="clip0">
<rect width="14" height="16" fill="white"/>
</clipPath>
</defs>
</svg>
